# This file uses meters as units for non-parametric coordinates.

mtllib book.mtl
g default
v -578.785716 58.552560 427.697347
v -591.422139 58.552560 416.155151
v -578.785716 62.433933 427.697347
v -591.422139 62.433933 416.155151
v -595.019092 62.433933 445.469684
v -607.655515 62.433933 433.927488
v -595.019092 58.552560 445.469684
v -607.655515 58.552560 433.927488
v -578.540649 62.759380 427.931609
v -591.413539 62.759380 416.173422
v -607.630470 62.759380 433.927756
v -594.757580 62.759380 445.685942
v -594.757580 58.227113 445.685942
v -607.630470 58.227113 433.927756
v -591.413539 58.227113 416.173422
v -578.540649 58.227113 427.931609
v -579.036882 58.600994 427.875216
v -591.357670 58.600994 416.621323
v -591.357670 62.385499 416.621323
v -579.036882 62.385499 427.875216
v -594.864658 62.385499 445.203501
v -607.185445 62.385499 433.949609
v -607.185445 58.600994 433.949609
v -594.864658 58.600994 445.203501
vt 0.818597 0.486411
vt 0.818597 0.000000
vt 0.897034 0.000000
vt 0.897034 0.486411
vt 0.723962 0.498370
vt 0.723962 0.000000
vt 0.817896 0.000000
vt 0.817896 0.498370
vt 0.992490 0.499286
vt 0.992490 0.000000
vt 0.999241 0.000346
vt 0.999241 0.499127
vt 0.825348 0.486410
vt 0.825348 0.985696
vt 0.818597 0.985537
vt 0.818597 0.486756
vt 0.825695 0.567791
vt 0.825695 0.486409
vt 0.832000 0.487425
vt 0.832000 0.566776
vt 0.839097 0.486409
vt 0.839097 0.567792
vt 0.832793 0.566777
vt 0.832793 0.487424
vt 0.000000 0.000000
vt 0.361345 0.000000
vt 0.361345 0.498369
vt 0.000000 0.498369
vt 0.361981 0.000000
vt 0.723326 0.000000
vt 0.723326 0.498369
vt 0.361981 0.498369
vt 0.000000 0.498369
vt 0.356668 0.498369
vt 0.349124 0.504636
vt 0.001365 0.504636
vt 0.356668 1.000000
vt 0.349124 0.993734
vt 0.000000 1.000000
vt 0.001365 0.993734
vt 0.713917 1.000000
vt 0.357249 1.000000
vt 0.358614 0.993733
vt 0.706373 0.993733
vt 0.713917 0.498369
vt 0.706373 0.504636
vt 0.357249 0.498369
vt 0.358614 0.504636
vt 0.904952 0.345848
vt 0.904952 0.000000
vt 0.983389 0.000000
vt 0.983389 0.345848
vt 0.904952 0.707816
vt 0.904952 0.361968
vt 0.983389 0.361968
vt 0.983389 0.707816
vt 0.985056 0.716724
vt 0.985056 0.361968
vt 0.991802 0.362355
vt 0.991802 0.723750
vt 0.904601 0.716724
vt 0.897855 0.723750
vt 0.904601 0.361968
vt 0.897855 0.362355
vt 0.904604 0.000000
vt 0.904604 0.354939
vt 0.897855 0.361968
vt 0.897855 0.000387
vt 0.985101 0.354939
vt 0.991850 0.361968
vt 0.985101 0.000000
vt 0.991850 0.000387
vn 0.674416 0.000000 -0.738352
vn 0.674416 0.000000 -0.738352
vn 0.674416 0.000000 -0.738352
vn 0.674416 0.000000 -0.738352
vn 0.000000 1.000000 -0.000000
vn 0.000000 1.000000 -0.000000
vn 0.000000 1.000000 -0.000000
vn 0.000000 1.000000 -0.000000
vn -0.674416 0.000000 0.738352
vn -0.674416 0.000000 0.738352
vn -0.674416 0.000000 0.738352
vn -0.674416 0.000000 0.738352
vn 0.000000 -1.000000 0.000000
vn 0.000000 -1.000000 0.000000
vn 0.000000 -1.000000 0.000000
vn 0.000000 -1.000000 0.000000
vn -0.738352 0.000000 -0.674416
vn -0.738352 0.000000 -0.674416
vn -0.738352 0.000000 -0.674416
vn -0.738352 0.000000 -0.674416
vn 0.738352 0.000000 0.674416
vn 0.738352 0.000000 0.674416
vn 0.738352 0.000000 0.674416
vn 0.738352 0.000000 0.674416
vn 0.679304 0.014266 -0.733718
vn 0.674276 0.020318 -0.738199
vn 0.674276 0.020318 -0.738199
vn 0.674856 0.019623 -0.737688
vn -0.737446 0.049524 -0.673588
vn -0.737446 0.049524 -0.673588
vn -0.737446 0.049524 -0.673588
vn -0.737446 0.049524 -0.673588
vn -0.673756 0.044216 0.737630
vn -0.663194 0.031056 0.747803
vn -0.672557 0.042706 0.738812
vn -0.673756 0.044216 0.737630
vn -0.663194 -0.031056 0.747803
vn -0.673756 -0.044216 0.737630
vn -0.673756 -0.044216 0.737630
vn -0.672557 -0.042706 0.738812
vn -0.737446 -0.049524 -0.673588
vn -0.737446 -0.049524 -0.673588
vn -0.737446 -0.049524 -0.673588
vn -0.737446 -0.049524 -0.673588
vn 0.674276 -0.020318 -0.738199
vn 0.679304 -0.014266 -0.733718
vn 0.674856 -0.019623 -0.737688
vn 0.674276 -0.020318 -0.738199
vn 0.679304 -0.014266 -0.733718
vn 0.679304 0.014266 -0.733718
vn 0.674856 0.019623 -0.737688
vn 0.674856 -0.019623 -0.737688
vn -0.663194 0.031056 0.747803
vn -0.663194 -0.031056 0.747803
vn -0.672557 -0.042706 0.738812
vn -0.672557 0.042706 0.738812
vn 0.123755 0.983020 -0.135488
vn -0.047981 0.992452 -0.112858
vn -0.014434 0.992961 -0.117562
vn 0.123755 0.983020 -0.135487
vn -0.047981 -0.992452 -0.112858
vn 0.123755 -0.983020 -0.135487
vn 0.123755 -0.983020 -0.135487
vn -0.014434 -0.992961 -0.117562
vn -0.578045 0.000000 -0.816005
vn -0.578045 0.000000 -0.816005
vn -0.578045 0.000000 -0.816005
vn -0.578045 0.000000 -0.816005
vn -0.123755 -0.983020 0.135488
vn -0.116731 -0.992452 -0.037591
vn -0.118385 -0.992961 -0.003756
vn -0.123755 -0.983020 0.135487
vn -0.116731 0.992452 -0.037591
vn -0.123755 0.983020 0.135487
vn -0.123755 0.983020 0.135487
vn -0.118385 0.992961 -0.003756
vn -0.864882 0.000000 -0.501975
vn -0.864882 0.000000 -0.501975
vn -0.864882 0.000000 -0.501975
vn -0.864882 0.000000 -0.501975
vn -0.047981 0.992452 -0.112858
vn -0.116731 0.992452 -0.037591
vn -0.118385 0.992961 -0.003756
vn -0.014434 0.992961 -0.117562
vn -0.116731 -0.992452 -0.037591
vn -0.047981 -0.992452 -0.112858
vn -0.014434 -0.992961 -0.117562
vn -0.118385 -0.992961 -0.003756
s off
g book2 books
usemtl pasted__pasted__usdPreviewSurface5SG2
f 17/49/1 18/50/2 19/51/3 20/52/4
f 9/25/5 10/26/6 11/27/7 12/28/8
f 21/53/9 22/54/10 23/55/11 24/56/12
f 13/29/13 14/30/14 15/31/15 16/32/16
f 18/1/17 23/2/18 22/3/19 19/4/20
f 13/5/21 16/6/22 9/7/23 12/8/24
f 3/57/25 4/58/26 10/59/27 9/60/28
f 4/9/29 6/10/30 11/11/31 10/12/32
f 6/65/33 5/66/34 12/67/35 11/68/36
f 7/69/37 8/71/38 14/72/39 13/70/40
f 8/13/41 2/14/42 15/15/43 14/16/44
f 2/63/45 1/61/46 16/62/47 15/64/48
f 1/61/49 3/57/50 9/60/51 16/62/52
f 5/66/53 7/69/54 13/70/55 12/67/56
f 1/33/57 2/34/58 18/35/59 17/36/60
f 4/41/61 3/42/62 20/43/63 19/44/64
f 3/17/65 1/18/66 17/19/67 20/20/68
f 5/47/69 6/45/70 22/46/71 21/48/72
f 8/37/73 7/39/74 24/40/75 23/38/76
f 7/21/77 5/22/78 21/23/79 24/24/80
f 2/34/81 8/37/82 23/38/83 18/35/84
f 6/45/85 4/41/86 19/44/87 22/46/88
