# This file uses meters as units for non-parametric coordinates.

mtllib monitor_standingLP.mtl
g default
v -441.060974 109.234032 637.529724
v -483.711853 109.234032 588.154297
v -445.741028 152.810806 641.572388
v -488.391937 152.810806 592.196899
v -447.261139 152.525726 642.885437
v -489.912018 152.525726 593.510010
v -442.581024 108.948967 638.842773
v -485.231964 108.948967 589.467407
v -486.450287 152.810806 594.444702
v -487.970398 152.525726 595.757751
v -483.290283 108.948967 591.715088
v -481.770172 109.234032 590.401978
v -447.614960 152.810806 639.402954
v -449.135101 152.525726 640.716003
v -444.455048 108.948967 636.673401
v -442.934937 109.234032 635.360291
v -445.452789 150.127167 641.323425
v -446.972900 149.842087 642.636536
v -448.846924 149.842087 640.467041
v -487.682159 149.842087 595.508789
v -489.623840 149.842087 593.261047
v -488.103668 150.127167 591.947937
v -441.383270 112.234978 637.808167
v -442.903381 111.949898 639.121216
v -444.777313 111.949898 636.951782
v -483.612640 111.949898 591.993530
v -485.554260 111.949898 589.745789
v -484.034149 112.234978 588.432678
v -443.864624 112.121056 636.163391
v -447.934143 150.013260 639.678650
v -482.699921 112.121056 591.205139
v -486.769440 150.013260 594.720398
v -486.470123 150.528427 593.926270
v -486.465729 150.070221 594.458008
v -447.104919 150.528427 639.497925
v -447.630463 150.070221 639.416321
v -482.314362 111.833702 590.336487
v -482.396210 112.178024 590.942749
v -442.949188 111.833702 635.908142
v -443.560883 112.178024 635.901001
v -464.085205 92.561142 622.193298
v -471.885315 92.561142 613.163391
v -464.085205 136.133926 622.193298
v -471.885315 136.133926 613.163391
v -467.256683 136.133926 624.932800
v -475.056732 136.133926 615.902893
v -467.256683 92.561142 624.932800
v -475.056732 92.561142 615.902893
v -475.056732 123.022926 615.902893
v -467.256683 123.022926 624.932800
v -464.085205 123.022926 622.193298
v -471.885315 123.022926 613.163391
v -460.698425 123.022926 619.267700
v -468.498505 123.022926 610.237854
v -469.839813 136.133926 611.396484
v -462.039703 136.133926 620.426392
v -450.429596 90.426712 619.578735
v -467.313446 90.426712 600.032898
v -466.134125 90.426712 633.144409
v -483.017914 90.426712 613.598572
v -450.429596 92.845078 619.578735
v -451.282227 93.449600 619.516418
v -467.375702 93.449600 600.885498
v -467.313446 92.845078 600.032898
v -466.071808 93.449600 632.291748
v -466.134125 92.845078 633.144409
v -482.165344 93.449600 613.660889
v -483.017914 92.845078 613.598572
vt 0.363414 0.173119
vt 0.359409 0.177766
vt 0.028223 0.147042
vt 0.025213 0.141743
vt 0.363414 0.571425
vt 0.359409 0.570712
vt 0.358911 0.180060
vt 0.027725 0.149335
vt 0.359907 0.155828
vt 0.028720 0.125103
vt 0.383362 0.570595
vt 0.383362 0.177650
vt 0.358911 0.573005
vt 0.027725 0.542280
vt 0.383362 0.158004
vt 0.002492 0.142315
vt 0.002492 0.122670
vt 0.359907 0.587380
vt 0.383362 0.589557
vt 0.025213 0.540050
vt 0.002492 0.535261
vt 0.357415 0.598858
vt 0.380871 0.601033
vt 0.002492 0.554222
vt 0.028720 0.556656
vt 0.026229 0.568133
vt 0.000000 0.565699
vt 0.765541 0.575453
vt 0.751361 0.591869
vt 0.739859 0.581933
vt 0.754039 0.565518
vt 0.457508 0.932053
vt 0.446005 0.922117
vt 0.442816 0.949061
vt 0.431314 0.939125
vt 0.322723 0.950341
vt 0.308543 0.933927
vt 0.320045 0.923991
vt 0.334225 0.940406
vt 0.014692 0.593744
vt 0.026194 0.583808
vt 0.000000 0.576737
vt 0.011502 0.566801
vt 0.511266 0.881151
vt 0.510609 0.876279
vt 0.822635 0.515058
vt 0.827550 0.515000
vt 0.508169 0.874171
vt 0.820195 0.512950
vt 0.016874 0.567294
vt 0.310722 0.907472
vt 0.308424 0.909457
vt 0.014576 0.569279
vt 0.846514 0.406935
vt 0.787787 0.474922
vt 0.763909 0.454296
vt 0.822636 0.386309
vt 0.861915 0.420238
vt 0.803187 0.488225
vt 0.147507 0.664822
vt 0.088780 0.596836
vt 0.112658 0.576210
vt 0.171385 0.644197
vt 0.099805 0.661917
vt 0.041077 0.593930
vt 0.066577 0.571904
vt 0.125304 0.639890
vt 0.251013 0.837492
vt 0.123895 0.690331
vt 0.242134 0.588195
vt 0.369253 0.735356
vt 0.638162 0.691661
vt 0.514453 0.834876
vt 0.400765 0.736672
vt 0.524476 0.593457
vt 0.644717 0.691182
vt 0.514931 0.841430
vt 0.394212 0.737151
vt 0.523996 0.586903
vt 0.358483 0.603515
vt 0.363154 0.599443
vt 0.400089 0.943348
vt 0.394652 0.940287
vt 0.414006 0.939781
vt 0.377838 0.603009
vt 0.391953 0.940794
vt 0.355784 0.604021
vt 0.842089 0.176748
vt 0.842089 0.000000
vt 0.863958 0.000000
vt 0.863958 0.176748
vt 0.842089 0.122671
vt 0.863958 0.122671
vt 0.842089 0.299419
vt 0.863958 0.299419
vt 0.409764 0.155476
vt 0.409764 0.174382
vt 0.383611 0.176808
vt 0.383611 0.157902
vt 0.739990 0.124840
vt 0.739990 0.143747
vt 0.409764 0.566188
vt 0.383611 0.568615
vt 0.763378 0.122671
vt 0.763378 0.141577
vt 0.739990 0.535553
vt 0.409764 0.585777
vt 0.383611 0.588203
vt 0.763378 0.533383
vt 0.739990 0.555142
vt 0.386095 0.599647
vt 0.412248 0.597221
vt 0.763378 0.552972
vt 0.742474 0.566586
vt 0.765862 0.564416
vt 0.051240 0.881412
vt 0.132914 0.881412
vt 0.122435 1.000000
vt 0.040760 1.000000
vt 0.024779 1.000000
vt 0.024779 0.881412
vt 0.000000 0.881412
vt 0.000000 1.000000
vt 0.000000 0.605888
vt 0.024779 0.605888
vt 0.877268 0.963170
vt 0.797432 0.963170
vt 0.797432 0.847252
vt 0.877268 0.847252
vt 0.773211 0.847252
vt 0.773211 0.963170
vt 0.797432 0.577931
vt 0.877268 0.577931
vt 0.773211 0.577931
vt 0.757589 0.963170
vt 0.747346 0.847252
vt 0.763909 0.122671
vt 0.842062 0.122671
vt 0.842062 0.386314
vt 0.763909 0.386314
vt 0.772914 0.602475
vt 0.772914 0.771641
vt 0.751983 0.771641
vt 0.751983 0.602475
vn -0.106334 0.990079 0.091852
vn -0.106334 0.990079 0.091852
vn -0.106334 0.990079 0.091852
vn -0.106334 0.990079 0.091852
vn -0.749251 -0.140511 0.647209
vn -0.749251 -0.140511 0.647209
vn -0.749251 -0.140511 0.647209
vn -0.749251 -0.140511 0.647209
vn 0.106333 -0.990079 -0.091851
vn 0.106333 -0.990079 -0.091851
vn 0.106333 -0.990079 -0.091851
vn 0.106333 -0.990079 -0.091851
vn -0.653694 0.000000 -0.756759
vn -0.653694 0.000000 -0.756759
vn -0.653694 0.000000 -0.756759
vn -0.653694 0.000000 -0.756759
vn 0.653694 0.000000 0.756759
vn 0.653694 0.000000 0.756759
vn 0.653694 0.000000 0.756759
vn 0.653694 0.000000 0.756759
vn -0.106333 0.990079 0.091851
vn -0.106333 0.990079 0.091851
vn -0.106333 0.990079 0.091851
vn -0.106333 0.990079 0.091851
vn -0.749251 -0.140511 0.647209
vn -0.749251 -0.140511 0.647209
vn -0.749251 -0.140511 0.647209
vn -0.749251 -0.140511 0.647209
vn 0.106333 -0.990079 -0.091851
vn 0.106333 -0.990079 -0.091851
vn 0.106333 -0.990079 -0.091851
vn 0.106333 -0.990079 -0.091851
vn -0.106333 0.990079 0.091851
vn -0.106333 0.990079 0.091851
vn -0.106333 0.990079 0.091851
vn -0.106333 0.990079 0.091851
vn -0.749251 -0.140511 0.647209
vn -0.749251 -0.140511 0.647209
vn -0.749251 -0.140511 0.647209
vn -0.749251 -0.140511 0.647209
vn 0.106333 -0.990079 -0.091851
vn 0.106333 -0.990079 -0.091851
vn 0.106333 -0.990079 -0.091851
vn 0.106333 -0.990079 -0.091851
vn 0.653694 0.000000 0.756759
vn 0.653694 0.000000 0.756759
vn 0.653694 0.000000 0.756759
vn 0.653694 0.000000 0.756759
vn -0.749251 -0.140511 0.647209
vn -0.749251 -0.140510 0.647209
vn -0.749251 -0.140511 0.647209
vn -0.749251 -0.140511 0.647209
vn -0.749251 -0.140511 0.647209
vn -0.749251 -0.140511 0.647209
vn -0.749251 -0.140510 0.647209
vn -0.749251 -0.140510 0.647209
vn -0.749251 -0.140511 0.647209
vn -0.749251 -0.140511 0.647209
vn -0.749251 -0.140510 0.647209
vn -0.749251 -0.140510 0.647209
vn -0.653694 0.000000 -0.756759
vn -0.653694 0.000000 -0.756759
vn -0.653694 0.000000 -0.756759
vn -0.653694 0.000000 -0.756759
vn 0.749251 0.140511 -0.647209
vn 0.749251 0.140511 -0.647209
vn 0.749251 0.140511 -0.647209
vn 0.749251 0.140511 -0.647209
vn 0.653694 0.000000 0.756759
vn 0.653694 0.000000 0.756759
vn 0.653694 0.000000 0.756759
vn 0.653694 0.000000 0.756759
vn -0.749251 -0.140511 0.647209
vn -0.749251 -0.140511 0.647209
vn -0.749251 -0.140511 0.647209
vn -0.749251 -0.140511 0.647209
vn -0.749251 -0.140511 0.647209
vn -0.749251 -0.140511 0.647209
vn -0.749251 -0.140511 0.647209
vn -0.749251 -0.140511 0.647209
vn -0.749251 -0.140511 0.647209
vn -0.749251 -0.140511 0.647209
vn -0.749251 -0.140511 0.647209
vn -0.749251 -0.140511 0.647209
vn -0.653694 0.000000 -0.756759
vn -0.653694 0.000000 -0.756759
vn -0.653694 0.000000 -0.756759
vn -0.653694 0.000000 -0.756759
vn 0.992032 0.099357 0.077463
vn 0.992032 0.099357 0.077463
vn 0.992032 0.099357 0.077463
vn 0.992032 0.099357 0.077463
vn 0.604989 -0.600735 -0.522595
vn 0.604989 -0.600735 -0.522595
vn 0.604989 -0.600735 -0.522595
vn 0.604989 -0.600735 -0.522595
vn 0.067569 0.099357 -0.992755
vn 0.067569 0.099357 -0.992755
vn 0.067569 0.099357 -0.992755
vn 0.067569 0.099357 -0.992755
vn 0.454610 0.799449 -0.392696
vn 0.454610 0.799450 -0.392696
vn 0.454610 0.799450 -0.392696
vn 0.454610 0.799449 -0.392696
vn 0.749251 0.140511 -0.647209
vn 0.749251 0.140511 -0.647209
vn 0.749251 0.140511 -0.647209
vn 0.749251 0.140510 -0.647209
vn 0.749251 0.140510 -0.647209
vn 0.749251 0.140510 -0.647209
vn 0.749251 0.140511 -0.647209
vn 0.749252 0.140510 -0.647208
vn 0.749251 0.140511 -0.647209
vn 0.749251 0.140511 -0.647209
vn 0.749251 0.140511 -0.647209
vn 0.749251 0.140510 -0.647209
vn 0.749251 0.140510 -0.647209
vn 0.749251 0.140510 -0.647209
vn 0.749251 0.140510 -0.647209
vn 0.749251 0.140510 -0.647209
vn 0.749251 0.140510 -0.647209
vn 0.749251 0.140510 -0.647209
vn 0.749251 0.140510 -0.647209
vn 0.749251 0.140510 -0.647209
vn 0.749251 0.140510 -0.647209
vn 0.749251 0.140510 -0.647209
vn 0.749251 0.140510 -0.647209
vn 0.749251 0.140510 -0.647209
vn 0.749251 0.140510 -0.647209
vn 0.749251 0.140511 -0.647209
vn 0.749251 0.140510 -0.647209
vn 0.749251 0.140510 -0.647209
vn 0.749251 0.140510 -0.647209
vn 0.749251 0.140510 -0.647209
vn 0.749251 0.140510 -0.647209
vn 0.749251 0.140510 -0.647209
vn -0.653694 -0.000001 -0.756759
vn -0.653694 -0.000001 -0.756759
vn -0.653694 -0.000001 -0.756759
vn -0.653694 -0.000001 -0.756759
vn -0.106333 0.990079 0.091851
vn -0.106333 0.990079 0.091851
vn -0.106333 0.990079 0.091851
vn -0.106333 0.990079 0.091851
vn 0.653694 -0.000001 0.756759
vn 0.653694 -0.000001 0.756759
vn 0.653694 -0.000001 0.756759
vn 0.653694 -0.000001 0.756759
vn 0.106333 -0.990079 -0.091851
vn 0.106333 -0.990079 -0.091851
vn 0.106333 -0.990079 -0.091851
vn 0.106333 -0.990079 -0.091851
vn 0.749937 0.133967 -0.647801
vn 0.749937 0.133967 -0.647801
vn 0.749937 0.133967 -0.647801
vn 0.749937 0.133967 -0.647801
vn 0.000000 1.000000 0.000000
vn 0.000000 1.000000 0.000000
vn 0.000000 1.000000 0.000000
vn 0.000000 1.000000 0.000000
vn -0.756759 0.000000 0.653694
vn -0.756759 0.000000 0.653694
vn -0.756759 0.000000 0.653694
vn -0.756759 0.000000 0.653694
vn 0.000000 -1.000000 0.000000
vn 0.000000 -1.000000 0.000000
vn 0.000000 -1.000000 0.000000
vn 0.000000 -1.000000 0.000000
vn -0.653694 0.000000 -0.756759
vn -0.653694 0.000000 -0.756759
vn -0.653694 0.000000 -0.756759
vn -0.653694 0.000000 -0.756759
vn 0.653694 0.000000 0.756759
vn 0.653694 0.000000 0.756759
vn 0.653694 0.000000 0.756759
vn 0.653694 0.000000 0.756759
vn -0.756759 0.000000 0.653694
vn -0.756759 0.000000 0.653694
vn -0.756759 0.000000 0.653694
vn -0.756759 0.000000 0.653694
vn 0.653694 0.000000 0.756759
vn 0.653694 0.000000 0.756759
vn 0.653694 0.000000 0.756759
vn 0.653694 0.000000 0.756759
vn 0.756759 0.000000 -0.653694
vn 0.756759 0.000000 -0.653694
vn 0.756759 0.000000 -0.653694
vn 0.756759 0.000000 -0.653694
vn -0.653694 0.000000 -0.756759
vn -0.653694 0.000000 -0.756759
vn -0.653694 0.000000 -0.756759
vn -0.653694 0.000000 -0.756759
vn 0.000000 -1.000000 0.000000
vn 0.000000 -1.000000 0.000000
vn 0.000000 -1.000000 0.000000
vn 0.000000 -1.000000 0.000000
vn -0.653694 0.000000 -0.756759
vn -0.653694 0.000000 -0.756759
vn -0.653694 0.000000 -0.756759
vn -0.653694 0.000000 -0.756759
vn 0.000000 1.000000 0.000000
vn 0.000000 1.000000 0.000000
vn 0.000000 1.000000 0.000000
vn 0.000000 1.000000 0.000000
vn 0.653694 0.000000 0.756759
vn 0.653694 0.000000 0.756759
vn 0.653694 0.000000 0.756759
vn 0.653694 0.000000 0.756759
vn 0.000000 -1.000000 0.000000
vn 0.000000 -1.000000 0.000000
vn 0.000000 -1.000000 0.000000
vn 0.000000 -1.000000 0.000000
vn 0.462234 0.707104 0.535111
vn 0.462234 0.707104 0.535111
vn 0.462234 0.707104 0.535111
vn 0.462234 0.707104 0.535111
vn 0.535111 0.707105 -0.462233
vn 0.535111 0.707105 -0.462233
vn 0.535111 0.707105 -0.462233
vn 0.535111 0.707105 -0.462233
vn -0.462234 0.707104 -0.535111
vn -0.462234 0.707104 -0.535111
vn -0.462234 0.707104 -0.535111
vn -0.462234 0.707104 -0.535111
vn -0.535112 0.707104 0.462233
vn -0.535112 0.707104 0.462233
vn -0.535112 0.707104 0.462233
vn -0.535112 0.707104 0.462233
vn 0.756759 0.000000 -0.653694
vn 0.756759 0.000000 -0.653694
vn 0.756759 0.000000 -0.653694
vn 0.756759 0.000000 -0.653694
vn 0.000000 1.000000 0.000000
vn 0.000000 1.000000 0.000000
vn 0.000000 1.000000 0.000000
vn 0.000000 1.000000 0.000000
vn -0.756759 0.000000 0.653694
vn -0.756759 0.000000 0.653694
vn -0.756759 0.000000 0.653694
vn -0.756759 0.000000 0.653694
vn -0.653694 0.000000 -0.756759
vn -0.653694 0.000000 -0.756759
vn -0.653694 0.000000 -0.756759
vn -0.653694 0.000000 -0.756759
vn 0.653694 0.000000 0.756759
vn 0.653694 0.000000 0.756759
vn 0.653694 0.000000 0.756759
vn 0.653694 0.000000 0.756759
s off
g everythingonthetableLP:monitor_standinggroup4
usemtl usdPreviewSurface1SG
f 3/28/1 13/29/2 14/30/3 5/31/4
f 24/96/5 25/97/6 15/98/7 7/99/8
f 7/36/9 15/37/10 16/38/11 1/39/12
f 2/111/13 8/108/14 27/107/15 28/112/16
f 7/27/17 1/24/18 23/25/19 24/26/20
f 9/32/21 4/34/22 6/35/23 10/33/24
f 11/103/25 26/102/26 27/107/27 8/108/28
f 12/41/29 11/40/30 8/42/31 2/43/32
f 13/29/33 9/32/34 10/33/35 14/30/36
f 15/98/37 25/97/38 26/102/39 11/103/40
f 16/38/41 15/37/42 11/40/43 12/41/44
f 18/22/45 17/18/46 3/19/47 5/23/48
f 5/104/49 14/105/50 19/101/51 18/100/52
f 20/106/53 19/101/54 14/105/55 10/109/56
f 21/110/57 20/106/58 10/109/59 6/113/60
f 22/114/61 21/110/62 6/113/63 4/115/64
f 30/13/65 29/14/66 31/8/67 32/7/68
f 24/26/69 23/25/70 17/18/71 18/22/72
f 18/100/73 19/101/74 25/97/75 24/96/76
f 26/102/77 25/97/78 19/101/79 20/106/80
f 27/107/81 26/102/82 20/106/83 21/110/84
f 28/112/85 27/107/86 21/110/87 22/114/88
f 33/1/89 34/2/90 38/3/91 37/4/92
f 34/2/93 33/1/94 35/5/95 36/6/96
f 36/80/97 35/81/98 39/82/99 40/83/100
f 37/44/101 38/45/102 40/46/103 39/47/104
f 1/24/105 16/21/106 39/20/107 23/25/108
f 28/10/109 37/4/110 12/16/111 2/17/112
f 39/20/113 16/21/114 12/16/115 37/4/116
f 13/11/117 35/5/118 33/1/119 9/12/120
f 17/18/121 35/5/122 13/11/123 3/19/124
f 9/12/125 33/1/126 22/9/127 4/15/128
f 23/84/129 39/82/130 35/81/131 17/85/132
f 22/9/133 33/1/134 37/4/135 28/10/136
f 36/80/137 40/83/138 29/86/139 30/87/140
f 40/46/141 38/45/142 31/48/143 29/49/144
f 38/3/145 34/2/146 32/7/147 31/8/148
f 34/50/149 36/51/150 30/52/151 32/53/152
f 53/116/153 54/117/154 55/118/155 56/119/156
f 43/54/157 44/55/158 46/56/159 45/57/160
f 45/126/161 46/127/162 49/128/163 50/129/164
f 47/60/165 48/61/166 42/62/167 41/63/168
f 52/130/169 49/128/170 46/127/171 44/131/172
f 50/122/173 51/121/174 43/120/175 45/123/176
f 50/129/177 49/128/178 48/132/179 47/133/180
f 47/124/181 41/125/182 51/121/183 50/122/184
f 41/137/185 42/138/186 52/139/187 51/140/188
f 42/134/189 48/132/190 49/128/191 52/130/192
f 51/64/193 52/65/194 54/66/195 53/67/196
f 52/130/197 44/131/198 55/135/199 54/136/200
f 44/55/201 43/54/202 56/58/203 55/59/204
f 43/120/205 51/121/206 53/116/207 56/119/208
f 59/68/209 60/69/210 58/70/211 57/71/212
f 61/76/213 62/72/214 65/75/215 66/79/216
f 62/72/217 61/76/218 64/77/219 63/73/220
f 63/73/221 64/77/222 68/78/223 67/74/224
f 66/79/225 65/75/226 67/74/227 68/78/228
f 57/88/229 58/89/230 64/90/231 61/91/232
f 62/72/233 63/73/234 67/74/235 65/75/236
f 66/141/237 68/142/238 60/143/239 59/144/240
f 58/89/241 60/92/242 68/93/243 64/90/244
f 59/94/245 57/88/246 61/91/247 66/95/248
