# This file uses meters as units for non-parametric coordinates.

mtllib toiletLP.mtl
g default
v -1223.247925 14.848657 -733.269043
v -1225.582397 14.848657 -725.725586
v -1223.161133 14.848657 -717.499451
v -1217.379761 14.848657 -711.215637
v -1209.383301 14.848657 -708.118835
v -1201.671875 14.848657 -709.818054
v -1179.607300 14.848657 -731.418884
v -1199.887573 14.848657 -753.461487
v -1218.991943 14.848657 -738.354736
v -1196.293945 14.848657 -713.589661
v -1174.048706 14.946115 -736.908020
v -1193.622314 14.946115 -758.182495
v -1194.913940 54.211609 -759.551758
v -1173.672852 54.211609 -736.464905
v -1226.752197 53.587402 -733.486023
v -1226.490845 53.911690 -733.329651
v -1229.443604 53.585236 -724.788086
v -1229.134521 53.911694 -724.777832
v -1226.651611 53.583923 -715.303101
v -1226.386719 53.911701 -715.451111
v -1219.985352 53.584099 -708.057617
v -1219.816650 53.911701 -708.310730
v -1210.765381 53.585716 -704.486694
v -1210.750732 53.911701 -704.798828
v -1201.873779 53.588062 -706.445801
v -1202.009399 53.911690 -706.722107
v -1195.879761 53.911690 -711.015930
v -1195.672485 53.589714 -710.794556
v -1199.795044 53.588581 -756.785095
v -1199.596069 53.911671 -756.557861
v -1221.641235 53.911690 -739.124817
v -1221.844727 53.589005 -739.350159
v -1177.533203 56.446129 -732.116699
v -1177.106689 56.133968 -732.114197
v -1199.147583 56.446129 -755.609375
v -1199.114624 56.133968 -756.034607
v -1220.524048 56.446129 -738.591614
v -1220.741577 56.133968 -738.817444
v -1196.112183 56.133968 -711.940491
v -1196.318970 56.446129 -712.176270
v -1225.918091 53.911488 -733.271851
v -1225.640015 54.223583 -733.116455
v -1228.561890 53.911488 -725.001465
v -1228.235352 54.223583 -724.997681
v -1225.886597 53.911472 -715.912842
v -1225.607666 54.223576 -716.070740
v -1219.414795 53.911469 -708.878601
v -1219.234253 54.223576 -709.143494
v -1210.582397 53.911472 -705.457947
v -1210.556641 54.223576 -705.782776
v -1202.021118 53.911488 -707.294312
v -1202.150635 54.223583 -707.585876
v -1196.112183 54.223583 -711.940491
v -1195.905396 53.911488 -711.704712
v -1199.114624 54.232498 -756.034607
v -1199.081177 53.929066 -756.471130
v -1220.741577 54.223583 -738.817444
v -1220.959106 53.911488 -739.043335
v -1225.640015 56.133968 -733.116455
v -1225.361938 56.446129 -732.961060
v -1228.235352 56.133968 -724.997681
v -1227.908813 56.446129 -724.993896
v -1225.328735 56.446129 -716.228638
v -1225.607666 56.133968 -716.070740
v -1219.053711 56.446129 -709.408325
v -1219.234253 56.133968 -709.143494
v -1210.556641 56.133968 -705.782776
v -1210.530884 56.446129 -706.107544
v -1202.150635 56.133968 -707.585876
v -1202.280151 56.446129 -707.877380
v -1176.625977 53.911671 -731.591614
v -1176.413818 53.589249 -731.370789
v -1177.106689 54.232742 -732.114197
v -1176.668579 53.929096 -732.111267
v -1173.215820 54.211914 -735.968262
v -1173.004639 53.891857 -735.739014
v -1195.574341 53.887691 -760.269897
v -1195.370361 54.211914 -760.047913
vt 0.494368 0.257935
vt 0.494368 0.180760
vt 0.890671 0.171169
vt 0.890692 0.260154
vt 0.494368 0.096601
vt 0.890657 0.074131
vt 0.894010 0.258555
vt 0.894010 0.171064
vt 0.494368 0.309965
vt 0.890709 0.320149
vt 0.494368 0.032313
vt 0.890658 0.000004
vt 0.894010 0.075645
vt 0.894010 0.317843
vt 0.494368 0.464518
vt 0.890704 0.498521
vt 0.894010 0.002594
vt 0.893765 0.534173
vt 0.495365 0.512817
vt 0.897310 0.250723
vt 0.897310 0.166740
vt 0.917072 0.166740
vt 0.917072 0.250723
vt 0.894082 0.252331
vt 0.894082 0.166779
vt 0.897310 0.074397
vt 0.917072 0.074397
vt 0.920301 0.249116
vt 0.920301 0.166701
vt 0.917072 0.309696
vt 0.897310 0.309696
vt 0.894082 0.312033
vt 0.894082 0.072764
vt 0.897310 0.002740
vt 0.917072 0.002740
vt 0.920301 0.076031
vt 0.920301 0.307360
vt 0.897403 0.487795
vt 0.917072 0.487795
vt 0.894082 0.000000
vt 0.920301 0.005480
vt 0.357860 0.390489
vt 0.565240 0.581288
vt 0.415018 0.769988
vt 0.181838 0.556319
vt 0.357838 0.386724
vt 0.568994 0.580997
vt 0.417011 0.771907
vt 0.365314 0.812693
vt 0.143890 0.608940
vt 0.179757 0.554493
vt 0.294985 0.835176
vt 0.128267 0.681773
vt 0.141316 0.607797
vt 0.217610 0.812400
vt 0.157405 0.757008
vt 0.125401 0.682000
vt 0.155067 0.758601
vt 0.255396 0.473611
vt 0.179672 0.497020
vt 0.181653 0.491949
vt 0.254885 0.468539
vt 0.097086 0.472688
vt 0.101176 0.468261
vt 0.305990 0.424629
vt 0.306711 0.430668
vt 0.033860 0.414513
vt 0.038889 0.410954
vt 0.461076 0.235464
vt 0.460309 0.230905
vt 0.002764 0.334236
vt 0.008599 0.332745
vt 0.463089 0.237226
vt 0.308707 0.432470
vt 0.456444 0.231201
vt 0.303990 0.422702
vt 0.487586 0.194005
vt 0.491981 0.198046
vt 0.031619 0.416006
vt 0.000000 0.334366
vt 0.019794 0.256833
vt 0.024861 0.256937
vt 0.041234 0.409355
vt 0.011476 0.332517
vt 0.493945 0.199853
vt 0.244635 0.036327
vt 0.244608 0.032447
vt 0.283158 0.005921
vt 0.017347 0.255633
vt 0.057814 0.202557
vt 0.063914 0.202784
vt 0.027442 0.258084
vt 0.066001 0.204615
vt 0.240007 0.032070
vt 0.278761 0.001874
vt 0.055854 0.200722
vt 0.238051 0.030191
vt 0.276731 0.000003
vt 0.569126 0.974070
vt 0.569126 0.894493
vt 0.954620 0.908247
vt 0.954604 1.000000
vt 0.569126 0.817752
vt 0.954643 0.819761
vt 0.569126 0.764233
vt 0.954660 0.758049
vt 0.569126 0.598174
vt 0.954654 0.566395
vt 0.570095 0.542859
vt 0.957667 0.532468
vt 0.920609 0.415324
vt 0.920609 0.329775
vt 0.939444 0.329775
vt 0.939444 0.415324
vt 0.920609 0.246902
vt 0.939444 0.246902
vt 0.920609 0.187372
vt 0.939444 0.187372
vt 0.920700 0.000004
vt 0.939444 0.000004
vt 0.000002 0.244968
vt 0.000000 0.000004
vt 0.019472 0.000004
vt 0.019472 0.244968
vn -0.645150 0.684545 -0.339383
vn -0.647660 0.684383 -0.334898
vn -0.477443 0.684173 -0.551322
vn -0.476232 0.684153 -0.552393
vn -0.726051 0.687638 0.001976
vn -0.726103 0.687551 0.006968
vn -0.639055 0.679110 0.361135
vn -0.638655 0.679110 0.361842
vn -0.411998 0.680508 0.605943
vn -0.413258 0.680497 0.605097
vn -0.061733 0.691328 0.719899
vn -0.067317 0.691206 0.719516
vn 0.282001 0.688098 0.668578
vn 0.277159 0.687970 0.670731
vn 0.508880 0.687190 0.518469
vn 0.507698 0.687205 0.519608
vn 0.533125 0.687314 0.493333
vn 0.533587 0.687464 0.492623
vn -0.459254 0.683308 -0.567605
vn -0.459932 0.683294 -0.567073
vn -0.493885 0.681919 -0.539504
vn -0.493885 0.681919 -0.539504
vn 0.520350 0.707134 -0.478747
vn 0.520349 0.707134 -0.478747
vn 0.520349 0.707134 -0.478747
vn 0.520350 0.707134 -0.478747
vn 0.514632 0.707175 0.484828
vn 0.514632 0.707175 0.484828
vn 0.493987 0.708244 0.504349
vn 0.493986 0.708244 0.504349
vn -0.440388 0.707145 -0.553177
vn -0.440388 0.707145 -0.553177
vn -0.461574 0.708200 -0.534231
vn -0.461573 0.708200 -0.534232
vn -0.615149 0.714252 -0.333820
vn -0.615148 0.714252 -0.333822
vn 0.274483 0.714670 0.643355
vn 0.274491 0.714671 0.643351
vn -0.615366 0.714248 -0.333429
vn -0.615364 0.714248 -0.333432
vn -0.457012 0.715843 -0.527928
vn -0.457013 0.715843 -0.527927
vn -0.691005 0.722849 0.001282
vn -0.691005 0.722849 0.001286
vn -0.606771 0.716402 0.344381
vn -0.606777 0.716402 0.344370
vn -0.393615 0.716436 0.576010
vn -0.393616 0.716436 0.576009
vn -0.062781 0.722154 0.688878
vn -0.062776 0.722154 0.688878
vn 0.274074 0.714754 0.643436
vn 0.274075 0.714754 0.643436
vn 0.488143 0.715785 0.499368
vn 0.488147 0.715786 0.499363
vn 0.507257 0.716741 0.478511
vn 0.507257 0.716741 0.478511
vn -0.434604 0.716854 -0.545197
vn -0.434604 0.716854 -0.545197
vn 0.506276 0.725748 -0.465805
vn 0.506276 0.725748 -0.465805
vn 0.506276 0.725748 -0.465805
vn 0.506276 0.725748 -0.465805
vn -0.690968 0.722884 0.001346
vn -0.690968 0.722884 0.001350
vn -0.606653 0.716414 0.344562
vn -0.606659 0.716414 0.344552
vn -0.393795 0.716406 0.575924
vn -0.393783 0.716406 0.575932
vn -0.062861 0.722051 0.688978
vn -0.062852 0.722051 0.688979
vn 0.545905 0.691325 0.473348
vn 0.545905 0.691325 0.473348
vn -0.881350 -0.082331 -0.465236
vn -0.951620 -0.087731 -0.294488
vn -0.951620 -0.087731 -0.294488
vn -0.885694 -0.082677 -0.456849
vn -0.954312 -0.101919 0.280894
vn -0.865989 -0.105747 0.488754
vn -0.865295 -0.105754 0.489980
vn -0.954312 -0.101919 0.280894
vn -0.558574 -0.104658 0.822826
vn -0.560844 -0.104685 0.821277
vn -0.359338 -0.099819 0.927854
vn -0.359338 -0.099819 0.927854
vn 0.214445 -0.083594 0.973152
vn 0.388949 -0.077882 0.917962
vn 0.379934 -0.078254 0.921698
vn 0.214445 -0.083594 0.973152
vn 0.699264 -0.062602 0.712117
vn 0.697071 -0.062721 0.714254
vn -0.617820 -0.066407 -0.783511
vn -0.651311 -0.067377 -0.755814
vn -0.653594 -0.067494 -0.753830
vn -0.617650 -0.066519 -0.783635
vn 0.000000 1.000000 0.000000
vn 0.000000 1.000000 0.000000
vn 0.000000 1.000000 -0.000000
vn 0.000000 1.000000 -0.000000
vn 0.000348 1.000000 0.000159
vn 0.000351 1.000000 -0.000034
vn 0.000359 1.000000 0.000019
vn 0.000328 1.000000 0.000192
vn 0.000285 1.000000 -0.000181
vn 0.000299 1.000000 -0.000161
vn 0.000188 1.000000 -0.000276
vn 0.000186 1.000000 -0.000277
vn 0.000047 1.000000 -0.000337
vn 0.000024 1.000000 -0.000342
vn -0.000121 1.000000 -0.000348
vn -0.000157 1.000000 -0.000334
vn 0.007326 0.999948 0.007063
vn 0.012217 0.999855 0.011840
vn -0.014447 0.999837 -0.010828
vn -0.006378 0.999949 -0.007829
vn -0.010770 0.999856 -0.013143
vn -0.039178 0.998618 0.035021
vn -0.879077 0.000000 -0.476679
vn -0.952515 0.000000 -0.304491
vn -0.952515 0.000000 -0.304491
vn -0.879077 0.000000 -0.476679
vn -0.959304 0.000000 0.282375
vn -0.869621 0.000000 0.493721
vn -0.869621 0.000000 0.493720
vn -0.959304 0.000000 0.282375
vn -0.564306 0.000000 0.825566
vn -0.564306 0.000000 0.825566
vn -0.361147 0.000000 0.932509
vn -0.361147 0.000000 0.932509
vn 0.209736 0.000000 0.977758
vn 0.392157 0.000000 0.919898
vn 0.392157 0.000000 0.919898
vn 0.209736 0.000000 0.977758
vn 0.699655 0.000000 0.714481
vn 0.699660 0.000000 0.714476
vn -0.622831 0.000000 -0.782357
vn -0.653842 0.000000 -0.756631
vn -0.653837 0.000000 -0.756636
vn -0.622831 0.000000 -0.782356
vn 0.730857 -0.059004 0.679975
vn 0.731181 -0.058711 0.679652
vn 0.010261 0.999835 0.015019
vn -0.037984 0.998628 0.036055
vn 0.727868 0.000000 0.685718
vn 0.727868 0.000000 0.685718
vn 0.735914 0.000000 -0.677075
vn 0.735914 0.000000 -0.677075
vn 0.735914 0.000000 -0.677075
vn 0.735914 0.000000 -0.677075
vn 0.739765 -0.050861 0.670941
vn 0.739765 -0.050861 0.670941
vn -0.613163 -0.069491 -0.786894
vn -0.613163 -0.069491 -0.786894
vn -0.040289 0.998500 0.037076
vn -0.040019 0.998498 0.037424
vn -0.040298 0.998500 0.037068
vn -0.040673 0.998494 0.036827
vn 0.000000 1.000000 0.000000
vn 0.000000 1.000000 0.000000
vn 0.000000 1.000000 0.000000
vn 0.000000 1.000000 0.000000
vn 0.000000 1.000000 -0.000000
vn 0.000000 1.000000 -0.000000
s 1
g toiletLP3:toiletLP
usemtl toiletLP3:initialShadingGroup
f 15/4/1 16/7/2 31/14/3 32/10/4
f 16/7/2 15/4/1 17/3/5 18/8/6
f 18/8/6 17/3/5 19/6/7 20/13/8
f 20/13/8 19/6/7 21/12/9 22/17/10
f 22/67/10 21/79/9 23/80/11 24/71/12
f 24/71/12 23/80/11 25/89/13 26/81/14
f 26/81/14 25/89/13 28/96/15 27/90/16
f 27/90/16 28/96/15 72/97/17 71/94/18
f 29/73/19 30/69/20 78/78/21 77/85/22
f 30/69/20 29/73/19 32/74/4 31/66/3
s off
f 33/42/23 34/46/24 36/47/25 35/43/26
s 2
f 34/46/27 33/42/28 40/45/29 39/51/30
f 35/43/31 36/47/32 38/48/33 37/44/34
f 37/37/34 38/30/33 59/23/35 60/28/36
f 39/51/30 40/45/29 70/50/37 69/54/38
s 4
f 41/24/39 42/20/40 57/31/41 58/32/42
f 42/20/40 41/24/39 43/25/43 44/21/44
f 44/21/44 43/25/43 45/33/45 46/26/46
f 46/26/46 45/33/45 47/40/47 48/34/48
f 48/83/48 47/68/47 49/72/49 50/84/50
f 50/84/50 49/72/49 51/82/51 52/92/52
f 52/92/52 51/82/51 54/91/53 53/93/54
f 53/93/54 54/91/53 74/87/55 73/86/56
f 55/75/57 56/70/58 58/65/42 57/76/41
s off
f 56/70/59 55/75/60 73/86/61 74/87/62
s 2
f 60/28/36 59/23/35 61/22/63 62/29/64
f 62/29/64 61/22/63 64/27/65 63/36/66
f 63/36/66 64/27/65 66/35/67 65/41/68
f 65/56/68 66/58/67 67/57/69 68/53/70
f 68/53/70 67/57/69 69/54/38 70/50/37
s 1
f 71/94/18 72/97/17 76/98/71 75/95/72
s 5
f 1/1/73 2/2/74 17/3/75 15/4/76
s 6
f 2/2/77 3/5/78 19/6/79 17/3/80
f 3/5/78 4/11/81 21/12/82 19/6/79
f 4/99/81 5/100/83 23/101/84 21/102/82
s 7
f 5/100/85 6/103/86 25/104/87 23/101/88
f 6/103/86 10/105/89 28/106/90 25/104/87
s 5
f 8/15/91 9/9/92 32/10/93 29/16/94
s 8
f 33/42/95 35/43/96 37/44/97 40/45/98
s 9
f 16/59/99 18/60/100 43/61/101 41/62/102
f 18/60/100 20/63/103 45/64/104 43/61/101
f 20/63/103 22/67/105 47/68/106 45/64/104
f 22/67/105 24/71/107 49/72/108 47/68/106
f 24/71/107 26/81/109 51/82/110 49/72/108
f 26/81/109 27/90/111 54/91/112 51/82/110
f 30/69/113 31/66/114 58/65/115 56/70/116
s 10
f 42/20/117 44/21/118 61/22/119 59/23/120
s 11
f 44/21/121 46/26/122 64/27/123 61/22/124
f 46/26/122 48/34/125 66/35/126 64/27/123
f 48/111/125 50/112/127 67/113/128 66/114/126
s 12
f 50/112/129 52/115/130 69/116/131 67/113/132
f 52/115/130 53/117/133 39/118/134 69/116/131
s 10
f 55/38/135 57/31/136 38/30/137 36/39/138
s 5
f 9/9/92 1/1/73 15/4/76 32/10/93
s 9
f 58/65/115 31/66/114 16/59/99 41/62/102
s 10
f 38/30/137 57/31/136 42/20/117 59/23/120
s 7
f 10/105/89 7/107/139 72/108/140 28/106/90
s 9
f 54/91/112 27/90/111 71/94/141 74/87/142
s 12
f 39/118/134 53/117/133 73/119/143 34/120/144
s off
f 73/121/145 55/122/146 36/123/147 34/124/148
s 7
f 72/108/140 7/107/139 11/109/149 76/110/150
s 5
f 8/15/91 29/16/94 77/18/151 12/19/152
s 9
f 30/69/113 56/70/116 13/77/153 78/78/154
f 56/70/116 74/87/142 14/88/155 13/77/153
f 74/87/142 71/94/141 75/95/156 14/88/155
s 8
f 68/53/157 62/52/158 63/55/159 65/56/160
f 70/50/161 60/49/162 62/52/158 68/53/157
f 40/45/98 37/44/97 60/49/162 70/50/161
